<svg version="1.1" id="Layer_1" xmlns="http://www.w3.org/2000/svg" xmlns:xlink="http://www.w3.org/1999/xlink" x="0px" y="0px"
	 width="100%" viewBox="0 0 1024 1024" enable-background="new 0 0 1024 1024" xml:space="preserve">
<path fill="#000000" opacity="1.000000" stroke="none" 
	d="
M561.046875,745.530518 
	C545.827942,750.618469 530.992798,755.442139 515.289062,757.720825 
	C503.304413,759.459839 491.345856,761.610901 479.280365,762.029297 
	C469.576202,762.365784 459.778259,761.737915 450.084686,760.239014 
	C443.423798,759.209106 436.456573,759.566956 430.012695,757.852295 
	C417.315918,754.473877 404.242157,752.140991 392.783264,744.828125 
	C382.070038,737.991150 370.547272,732.399292 360.004639,725.329163 
	C355.229858,722.127014 350.373413,718.771118 346.052155,714.581299 
	C340.562500,709.258423 333.817108,704.737854 326.835846,701.601685 
	C321.224274,699.080750 317.473358,694.877930 313.034729,691.281250 
	C307.510040,686.804504 302.424377,681.789246 296.949127,677.247681 
	C285.810944,668.008789 275.693970,657.688843 265.581329,647.403015 
	C253.319778,634.931519 244.112335,620.114258 234.377594,605.662048 
	C230.514130,599.926270 227.343109,593.653992 222.731628,588.381897 
	C217.427887,582.318359 217.689545,574.097107 214.797806,567.086243 
	C211.019699,557.926514 210.399139,548.062683 208.789810,538.468140 
	C207.131485,528.581482 208.010864,518.442200 207.472626,508.442963 
	C206.799301,495.934113 205.793365,483.425842 206.080063,470.912201 
	C206.336746,459.707825 206.425522,448.506012 207.671707,437.285400 
	C209.040695,424.959106 211.057251,412.666473 210.922958,400.138092 
	C210.831085,391.568787 212.572388,382.995667 212.869003,374.402679 
	C213.305511,361.756683 216.553864,349.556763 218.066330,337.101654 
	C219.218323,327.615051 222.200439,318.658997 225.258026,309.777100 
	C227.625595,302.899567 229.177750,296.092987 228.887024,288.876892 
	C228.697510,284.173126 229.332748,279.630219 230.464508,275.058350 
	C231.995438,268.874054 232.117279,262.470245 231.566528,256.183014 
	C230.466812,243.628647 241.771286,233.275848 254.355591,233.497772 
	C265.126282,233.687729 274.264862,237.082382 283.475220,241.694168 
	C297.423065,248.678070 308.803741,258.819702 320.115204,269.372345 
	C326.842163,275.647980 334.103760,281.488556 340.719879,287.915771 
	C348.311523,295.290619 355.248718,303.442780 363.571991,309.947205 
	C373.265320,317.522308 380.677917,327.372375 390.189209,335.057190 
	C394.711304,338.710876 397.321136,344.103058 402.069977,347.710693 
	C408.145264,352.326050 408.827332,352.201172 412.162506,345.421204 
	C418.232971,333.080811 422.507477,319.890411 429.082916,307.888306 
	C433.053253,300.641205 436.929077,293.255157 440.802948,285.970825 
	C444.949097,278.174591 449.118866,270.273682 452.415619,261.965668 
	C457.734772,248.560974 466.486633,236.954880 473.135345,224.231674 
	C477.949677,215.018768 481.752686,205.163330 487.461792,196.560028 
	C495.146210,184.980164 501.262695,171.614914 515.467346,165.807037 
	C521.115479,163.497665 525.224365,165.300125 528.460632,170.368362 
	C534.170288,179.310165 539.042603,188.691544 543.336243,198.318069 
	C547.770813,208.260727 551.463928,218.550064 555.139709,228.810165 
	C558.162354,237.246964 561.947266,245.376511 564.983154,253.780075 
	C568.623962,263.857880 571.108093,274.357452 574.834717,284.399139 
	C577.996460,292.918823 579.775269,301.860046 584.093323,310.081879 
	C587.807861,317.154755 589.912781,325.112640 592.376648,332.792358 
	C595.245728,341.734985 597.663879,350.821198 600.401062,359.807526 
	C603.296204,369.312469 605.147156,379.134735 609.288635,388.268585 
	C610.652710,391.276825 612.682739,393.870148 613.738159,397.130432 
	C614.763123,400.296631 621.083069,399.845825 622.791992,396.123535 
	C627.583557,385.686432 636.602478,379.471527 644.963440,372.519531 
	C650.513000,367.905182 653.988281,361.524628 658.484924,356.026398 
	C664.458008,348.722992 671.214478,342.154083 677.153931,334.831177 
	C682.676758,328.022034 688.641846,321.593353 693.182556,314.012665 
	C694.613403,311.623962 696.702515,309.624207 698.527466,307.477966 
	C707.301025,297.159576 714.477478,285.364075 725.567932,277.178894 
	C735.429260,269.900848 744.136597,261.296570 753.600647,253.582687 
	C764.705017,244.531784 779.542725,248.123260 786.872070,260.321381 
	C795.306519,274.358704 797.147461,290.097046 800.399719,305.544861 
	C802.282959,314.489960 803.456726,323.540283 803.481934,332.642303 
	C803.524719,348.064423 803.731750,363.487732 801.283691,378.844177 
	C799.702148,388.765076 798.157104,398.777618 799.875183,408.972321 
	C800.435913,412.299591 799.998779,415.983948 799.210938,419.314087 
	C796.849609,429.295319 795.956604,439.590668 792.729187,449.379028 
	C792.574280,449.848999 792.358459,450.383240 792.444214,450.835724 
	C794.313354,460.703278 791.332642,470.548950 792.212585,480.352020 
	C793.084106,490.059967 791.098389,499.412415 788.485901,508.391876 
	C785.028809,520.274658 782.170959,532.361572 777.517029,543.939209 
	C772.887573,555.456299 768.774109,567.029785 760.840881,576.942200 
	C756.299377,582.616699 752.991882,589.276550 749.096008,595.472168 
	C748.393250,596.589783 747.681091,597.773560 746.716980,598.642334 
	C742.492188,602.449158 739.343445,607.020081 736.097961,611.674988 
	C731.479797,618.298828 725.647156,624.043701 720.697876,630.492981 
	C716.054993,636.543091 710.917236,642.235596 705.735657,647.843750 
	C700.516724,653.492249 695.402466,659.378662 689.429077,664.140503 
	C685.284546,667.444397 681.697937,671.243835 677.946777,674.840332 
	C665.326843,686.939819 651.680359,697.674316 637.284119,707.541565 
	C623.872498,716.734070 609.460999,723.985657 594.968384,731.299927 
	C585.801697,735.926270 576.207581,739.362671 567.037781,743.838562 
	C565.311218,744.681335 563.261841,744.863037 561.046875,745.530518 
M271.165192,589.341980 
	C277.262726,596.962097 283.695404,604.342529 289.363007,612.270020 
	C294.966675,620.108032 301.113892,627.905457 308.062225,633.987915 
	C318.592316,643.205688 328.123413,653.628601 339.917847,661.559021 
	C353.667847,670.804504 366.436371,681.459839 380.492035,690.361511 
	C392.725525,698.109131 404.819000,705.922913 417.691528,712.709290 
	C428.372925,718.340576 439.246460,721.857117 450.966766,723.388550 
	C464.915436,725.211243 478.843567,725.193542 492.896179,723.793152 
	C497.743835,723.310059 501.903381,720.929749 506.724976,720.853760 
	C516.186646,720.704529 525.494080,718.642761 534.381165,715.901672 
	C545.745544,712.396484 556.754822,707.571472 567.607239,702.634033 
	C574.824524,699.350281 581.384277,694.652466 588.446167,690.988220 
	C598.008484,686.026428 607.032898,680.400269 615.727234,673.952332 
	C626.057068,666.291626 634.329590,656.365356 645.418152,649.467285 
	C658.398010,641.392639 668.750244,630.051392 678.246643,618.011841 
	C680.606812,615.019653 682.415283,611.552246 685.134338,608.942444 
	C694.156250,600.282898 700.975342,589.831116 708.895874,580.282043 
	C715.452698,572.376953 720.230347,563.176575 726.836060,555.260132 
	C729.762390,551.752991 732.733276,547.850342 734.149658,543.614197 
	C736.452637,536.726257 739.078003,529.872742 741.561707,523.123596 
	C746.987427,508.380157 750.044617,493.258942 752.987244,477.980621 
	C753.812927,473.693237 752.892944,469.383148 754.286377,465.158844 
	C756.813232,457.498779 756.731323,449.477936 756.130554,441.591614 
	C755.825439,437.585907 755.145447,433.632172 756.310486,429.770844 
	C759.533020,419.090851 760.863159,408.045593 761.634521,397.054688 
	C762.441528,385.556183 761.698669,373.949677 761.656311,362.390289 
	C761.645935,359.558197 761.348999,356.660187 761.829590,353.905121 
	C763.696228,343.205048 762.266846,332.771240 759.733826,322.400665 
	C758.542908,317.524872 755.915222,316.692200 751.889954,319.647675 
	C743.559570,325.763977 735.951538,332.811157 729.084106,340.385071 
	C715.390991,355.486938 702.536987,371.347809 689.262207,386.831573 
	C682.250305,395.010223 675.075867,403.049438 667.986938,411.162170 
	C661.337036,418.772400 654.499878,426.256104 649.572510,435.169189 
	C646.978027,439.862305 644.335022,445.114624 645.538818,450.311920 
	C647.732971,459.784851 651.628418,468.856598 653.970337,478.304840 
	C655.640991,485.044861 658.447876,491.583221 656.638611,499.136169 
	C653.463867,512.389099 646.703064,517.033325 637.805725,519.094238 
	C628.419006,521.268433 615.688599,514.401062 611.153259,505.909698 
	C604.993713,494.377594 600.776184,481.992828 595.272522,470.197418 
	C592.531311,464.322357 591.409851,457.614990 587.511902,452.487457 
	C582.399719,445.762573 577.164795,439.271118 573.727844,431.420715 
	C571.616638,426.598328 567.437744,422.480194 566.154236,417.535309 
	C562.741272,404.386017 556.455872,392.247894 553.940552,378.727600 
	C551.569519,365.983795 547.009888,353.657990 543.670166,341.080048 
	C541.179504,331.699951 537.861938,322.569580 534.903931,313.363190 
	C530.017090,298.153687 523.623779,283.422729 517.720337,268.547668 
	C514.570374,260.610809 512.239380,260.333191 507.022675,266.921265 
	C506.714081,267.311005 506.489624,267.766174 506.200195,268.172485 
	C500.235046,276.546173 495.842865,285.929535 490.215332,294.414337 
	C481.608429,307.391205 475.481689,321.531921 469.377106,335.565430 
	C464.686035,346.349670 458.698608,356.485962 454.557098,367.564911 
	C450.748352,377.753601 446.711487,387.327850 447.981628,398.774658 
	C449.244934,410.159637 446.013397,420.403595 434.654022,426.392822 
	C432.011139,427.786255 429.050110,429.691559 428.503082,433.212006 
	C427.320892,440.820068 423.874268,447.722748 421.821472,455.066650 
	C419.906555,461.917206 416.540955,468.397461 414.984985,475.304535 
	C412.831360,484.864624 409.074585,493.341309 402.377594,500.487915 
	C392.274353,511.269409 376.985748,507.681183 372.425232,493.706024 
	C370.739105,488.539124 371.872192,483.845001 373.199829,479.068604 
	C374.574860,474.121613 376.937836,469.340668 377.999176,464.451752 
	C381.263153,449.416748 386.896820,435.094574 390.422241,420.137238 
	C392.889740,409.668060 392.956207,400.339874 386.087952,391.437408 
	C383.270508,387.785461 379.819489,384.688629 377.109436,381.198853 
	C369.540100,371.451782 360.757477,362.979858 352.031982,354.397827 
	C341.674194,344.210358 330.721252,334.651459 320.213776,324.614594 
	C306.855835,311.854919 294.486694,297.669525 277.798981,288.701447 
	C272.865906,286.050354 271.413086,286.437866 270.134308,292.168579 
	C268.658325,298.783020 267.635223,305.512787 265.871246,312.045502 
	C262.996124,322.693085 260.431671,333.461914 256.270020,343.711456 
	C252.853302,352.126282 252.027191,360.913727 250.862595,369.825073 
	C249.739502,378.418793 250.616653,386.953491 249.604080,395.511353 
	C248.228394,407.137939 250.602005,419.073914 246.517822,430.577850 
	C245.334793,433.910095 245.066910,437.705139 245.522964,441.441437 
	C246.630600,450.515686 247.003815,459.639343 245.072906,468.633301 
	C244.495972,471.320587 244.439850,473.914307 244.626480,476.526520 
	C245.319580,486.227692 243.585480,495.862030 244.798340,505.679993 
	C245.783585,513.655518 246.142929,521.794861 246.987411,529.848999 
	C247.681503,536.468811 250.008636,542.695251 251.371857,549.152771 
	C252.703735,555.461853 254.204620,561.680603 257.065643,567.607422 
	C260.765076,575.271057 265.457123,582.184753 271.165192,589.341980 
z"/>
</svg>