<svg version="1.1" id="Layer_1" xmlns="http://www.w3.org/2000/svg" xmlns:xlink="http://www.w3.org/1999/xlink" x="0px" y="0px"
	 width="100%" viewBox="0 0 1024 1024" enable-background="new 0 0 1024 1024" xml:space="preserve">
<path fill="#000000" opacity="1.000000" stroke="none" 
	d="
M255.548615,788.871460 
	C258.418488,781.896118 260.157806,774.919739 262.259949,768.049316 
	C264.700012,760.074402 266.012634,751.846130 268.407074,743.839539 
	C270.936737,735.380859 276.347717,727.694824 275.769318,718.333069 
	C275.721405,717.558044 275.964813,716.595520 276.424591,715.984863 
	C280.898224,710.043518 280.781311,702.647461 282.908142,695.968445 
	C283.403229,694.413635 284.272095,692.958313 285.099213,691.532776 
	C286.892731,688.441467 288.243530,684.948120 287.722626,681.591614 
	C286.697144,674.983398 290.520355,669.808899 292.031708,663.995544 
	C294.442200,654.723450 300.474091,646.736450 303.006622,637.660645 
	C305.718994,627.940369 309.694305,618.763245 312.930511,609.292053 
	C314.762787,603.929688 316.773163,598.326843 321.581604,594.559753 
	C324.402771,592.349548 324.674042,588.749573 326.305939,585.884644 
	C332.271790,575.411133 338.627930,565.157837 344.689850,554.774414 
	C350.394714,545.002563 359.381470,538.627808 366.034149,529.943420 
	C370.715759,523.831970 377.770630,519.515503 383.876617,514.533264 
	C385.552185,513.166077 387.483917,512.153687 388.393585,510.035706 
	C388.867035,508.933411 389.533386,507.962097 390.850677,507.783325 
	C400.494293,506.474396 405.659363,498.425873 412.665039,493.173920 
	C413.958893,492.203979 415.019562,491.065552 416.587311,490.330109 
	C426.051514,485.890381 435.331512,481.046387 444.878540,476.799316 
	C450.901764,474.119781 457.309570,472.315826 463.495605,469.988068 
	C469.547791,467.710632 475.589050,465.387299 481.529419,462.837830 
	C483.944214,461.801453 487.018524,452.915070 485.585175,449.849182 
	C483.691132,445.797882 484.420166,441.265015 485.158600,437.977600 
	C486.778473,430.765991 485.418152,423.763275 485.892120,416.706970 
	C486.336700,410.087769 483.903137,408.836914 478.377594,405.219482 
	C471.875214,400.962494 464.382538,400.288086 457.549103,397.441589 
	C452.397919,395.295837 446.389191,395.026825 441.092987,392.505768 
	C439.179504,391.594971 437.116760,390.946838 435.229156,389.873230 
	C428.617310,386.112518 422.141663,382.254974 414.442352,380.671539 
	C406.610199,379.060822 400.900757,373.068481 394.103973,369.280121 
	C386.344818,364.955414 378.590729,360.809174 373.211060,353.318390 
	C372.046112,351.696289 369.637268,350.979950 367.829803,349.802765 
	C366.445801,348.901367 364.825592,348.169922 363.792236,346.953583 
	C355.967468,337.743561 347.544678,329.075195 339.823730,319.733826 
	C333.753845,312.390015 330.736023,304.282318 326.753204,296.220612 
	C320.720215,284.009155 319.770660,271.062592 319.388947,257.840576 
	C319.207977,251.571945 316.471497,245.376999 317.765869,239.080597 
	C318.971863,233.214066 321.009796,227.508163 322.861359,221.789795 
	C323.613739,219.466187 326.008301,219.067703 327.816101,218.334610 
	C336.139679,224.746368 339.496704,234.534363 345.275970,242.597687 
	C346.796753,244.719589 347.212280,247.271774 347.171661,249.742630 
	C347.056305,256.764038 348.921265,263.466705 349.855164,270.287933 
	C350.961365,278.367920 355.925964,283.796753 359.688965,289.975983 
	C362.123230,293.973358 364.960663,297.982605 367.444458,301.959900 
	C370.767944,307.281891 375.027069,311.242981 379.510284,315.350586 
	C382.472321,318.064453 384.532196,321.757568 387.603149,324.541016 
	C397.589752,333.592834 409.349609,340.043213 420.539703,347.343292 
	C434.120575,356.203064 449.336639,360.305664 464.929596,363.828888 
	C471.112885,365.226013 477.026886,364.825592 483.074005,364.555542 
	C490.349915,364.230621 492.153534,361.771393 490.708496,354.711517 
	C490.040344,351.447052 489.974213,348.165161 489.920166,344.831268 
	C489.809082,337.981903 488.424713,331.073120 489.000061,324.310974 
	C489.918518,313.516174 489.757629,302.715912 490.172699,291.928864 
	C490.642273,279.725220 491.928772,267.473541 490.094238,255.269043 
	C489.469177,251.110687 489.471802,246.944000 489.905518,242.820114 
	C490.270325,239.351517 491.565460,235.936569 488.531128,232.959564 
	C487.924225,232.364105 488.144714,231.470871 488.508087,230.628815 
	C493.080719,220.031906 491.749573,209.420837 488.198700,198.944382 
	C487.080505,195.645340 486.253387,192.575394 487.807892,189.312424 
	C488.441162,187.983109 488.013306,186.752823 487.890167,185.431671 
	C487.375092,179.905930 486.388733,174.496170 486.453156,168.812775 
	C486.511200,163.692200 485.187866,158.080414 482.890564,153.100449 
	C481.317810,149.691101 480.044525,146.326721 482.010742,142.639221 
	C483.115234,140.567841 481.308319,138.798706 481.342529,136.854004 
	C481.453705,130.531296 486.138458,126.423065 492.727112,127.184547 
	C505.700287,128.683929 517.592773,132.850510 526.945007,142.435364 
	C530.683044,146.266357 533.344238,150.627625 533.382141,156.431534 
	C533.446655,166.325928 535.222290,176.369080 534.005554,186.064407 
	C532.910889,194.786560 535.685120,203.868362 531.523499,212.293091 
	C530.865051,213.625992 531.179260,215.610779 531.473938,217.215179 
	C533.352417,227.442841 532.488708,237.394821 530.841431,247.705643 
	C529.149353,258.296722 528.330566,269.376587 531.120483,280.173645 
	C531.981262,283.504974 530.604553,286.752472 530.562561,290.055237 
	C530.447571,299.104889 532.010071,308.172089 529.898987,317.219116 
	C529.449951,319.143524 530.563171,321.416168 530.880859,323.539734 
	C531.329712,326.539856 532.972290,329.607849 530.454102,332.486389 
	C530.268127,332.699005 530.178833,333.200531 530.297363,333.445312 
	C533.779053,340.634216 528.229858,349.128876 533.548950,356.022980 
	C535.028015,357.940002 532.977905,361.618378 536.396667,362.325958 
	C538.933899,362.851074 541.036621,360.776031 543.407166,360.070648 
	C550.504883,357.958740 557.675049,356.040314 564.643982,353.560303 
	C571.229553,351.216736 578.229431,349.312836 582.434631,342.882446 
	C584.196960,340.187561 587.563049,340.205750 590.024414,338.486877 
	C597.257019,333.435944 604.348267,328.392456 609.641296,321.168182 
	C611.625916,318.459442 614.177856,316.330933 617.481384,315.210144 
	C618.536255,314.852234 619.887329,314.259613 620.331665,313.383362 
	C624.226318,305.702637 631.562744,300.790619 636.050781,293.599182 
	C638.078857,290.349487 639.557800,286.934509 640.913086,283.336456 
	C644.977966,272.544464 653.927917,262.960693 667.010559,262.307404 
	C668.463562,262.234833 670.027527,261.357300 671.316162,261.698517 
	C673.473633,262.269775 674.892029,264.644928 673.982422,266.364075 
	C668.445801,276.828735 669.297791,288.514465 667.124573,299.607361 
	C666.477905,302.907990 663.741882,305.161804 662.364685,308.226044 
	C659.475586,314.653870 656.180420,321.040863 653.395020,327.411499 
	C648.802979,337.914368 639.290833,343.569122 633.097961,352.198578 
	C628.692749,358.337036 622.089294,362.242981 618.119202,368.713623 
	C615.151184,373.551208 609.190002,373.545563 604.624512,375.690948 
	C597.183472,379.187683 589.659241,382.641357 582.238220,386.122070 
	C576.919800,388.616638 571.351807,391.227997 566.227051,394.593414 
	C561.519531,397.684845 555.856445,400.738953 549.523682,400.057983 
	C543.988464,399.462830 539.770447,402.695648 535.197083,404.823944 
	C533.204346,405.751282 532.758301,408.065887 532.682068,410.016418 
	C532.462097,415.644928 532.893616,421.359131 532.635620,426.899994 
	C532.172058,436.855988 534.299194,446.652313 533.451477,456.568024 
	C533.077942,460.938141 535.229370,463.238434 539.627380,464.800354 
	C548.732117,468.033905 558.273926,469.272888 567.493713,471.894409 
	C578.962341,475.155273 590.641724,477.639709 601.826538,481.943634 
	C605.270020,483.268677 608.586426,484.867157 611.619019,486.735596 
	C615.202515,488.943451 619.036865,490.223969 622.759705,491.922974 
	C627.585999,494.125580 631.924622,497.597626 636.097107,500.986176 
	C642.738953,506.380188 648.475952,513.073181 657.518433,514.693542 
	C658.790649,514.921570 659.520081,515.913269 659.962097,517.005676 
	C663.117493,524.803833 667.720520,531.519226 674.476562,536.649658 
	C676.828857,538.436035 678.938049,540.385681 682.072998,541.145813 
	C685.131714,541.887512 685.134521,545.809875 687.317688,547.893311 
	C689.180725,549.671204 689.837708,552.760559 690.897827,555.323730 
	C695.011780,565.270569 700.035522,574.757141 705.137634,584.220764 
	C707.393066,588.404236 709.338867,592.712585 710.645935,597.434875 
	C712.632202,604.610718 714.136047,612.375610 721.196899,616.938782 
	C721.336792,617.029236 721.590759,617.095703 721.607544,617.202393 
	C722.911743,625.476868 728.218445,632.070129 730.979370,639.671265 
	C732.468994,643.772095 734.918396,647.371094 735.769226,651.978943 
	C737.123657,659.314087 738.592285,666.645874 739.683289,674.039307 
	C739.879761,675.370850 739.953552,676.665222 740.847839,677.772217 
	C746.503296,684.773193 746.597961,694.099792 750.748657,701.862610 
	C752.161194,704.504517 751.255371,709.079651 753.267883,712.393982 
	C753.773804,713.226990 754.213257,714.560303 754.917419,714.738586 
	C759.601440,715.924438 760.004272,720.360352 759.874146,723.351318 
	C759.584106,730.016724 762.511169,735.270935 765.529053,740.522888 
	C769.182983,746.881714 769.409485,753.938110 770.232483,760.815186 
	C770.703674,764.753113 771.976379,768.533081 773.676514,771.625305 
	C778.556335,780.500977 775.174194,787.639343 770.550476,794.912842 
	C769.207703,797.025146 767.595215,797.836731 765.092834,796.847534 
	C760.733459,795.124329 756.354736,793.571289 752.117004,791.480530 
	C747.752319,789.327271 743.887512,787.197815 741.094727,783.570129 
	C735.245178,775.971985 727.704224,769.591614 724.939392,759.705444 
	C723.801331,755.636230 720.196045,752.269836 721.815918,747.432922 
	C721.997803,746.889771 721.755493,746.057861 721.440491,745.516724 
	C715.577515,735.444885 712.371948,724.153320 708.684570,713.342957 
	C705.699036,704.590210 700.867554,696.247742 699.652527,687.098389 
	C698.633362,679.423767 694.004639,672.824463 693.592163,665.482971 
	C692.882385,652.851562 683.550049,644.179016 680.391418,632.653381 
	C677.257202,621.216980 668.404236,612.276428 663.314270,601.690063 
	C660.026550,594.852356 656.171204,588.472961 652.196594,582.161499 
	C647.344727,574.456970 642.211243,566.892212 636.974426,559.455139 
	C634.697021,556.220886 630.177734,554.667603 627.953613,550.712524 
	C626.975403,548.972839 626.688110,547.080261 625.644226,545.345520 
	C618.830994,534.023254 607.360291,528.663391 596.454834,523.039246 
	C586.260254,517.781677 575.169128,514.203186 564.697144,509.482208 
	C556.194702,505.649078 548.048401,505.871582 539.464417,507.274628 
	C535.605713,507.905304 533.931335,509.371399 533.729797,514.146667 
	C533.356995,522.983032 534.099854,531.812500 532.778564,540.747742 
	C531.641479,548.437134 533.258667,556.599609 533.221375,564.585327 
	C533.188293,571.670227 533.139282,578.717163 531.664368,585.661255 
	C531.175903,587.961060 532.246521,589.897034 532.492004,592.010742 
	C533.390381,599.746460 533.055054,607.470886 532.011047,615.172607 
	C531.877869,616.155151 531.409668,617.157898 531.524902,618.098877 
	C533.847595,637.063416 531.419373,656.018555 531.564941,674.968262 
	C531.692078,691.521240 531.044067,708.055603 531.199463,724.601807 
	C531.276611,732.812622 531.449097,741.038513 531.396851,749.223633 
	C531.361816,754.699036 530.142822,760.455078 530.631104,765.852600 
	C531.341370,773.703735 530.984985,781.578308 532.690857,789.543396 
	C534.111328,796.176086 534.967590,804.165161 530.903503,811.075073 
	C530.210205,812.253845 530.134644,814.026062 530.319824,815.453247 
	C531.372437,823.563721 528.419617,831.346680 528.303650,839.459778 
	C528.236572,844.152649 525.950623,849.949158 524.183899,855.111328 
	C522.202393,860.901184 518.518799,863.452454 514.281433,866.356384 
	C512.620728,867.494568 511.214233,867.485840 509.242462,866.580139 
	C503.227631,863.817322 500.237885,858.814453 498.561981,852.894897 
	C496.404785,845.275330 494.589294,837.558411 492.652039,829.877075 
	C488.245789,812.406189 488.746857,794.487610 487.783661,776.699097 
	C487.362640,768.923462 487.652557,761.195007 488.240265,753.435120 
	C488.458588,750.552673 487.268768,747.572510 486.785522,744.626282 
	C485.231812,735.153687 486.147461,725.583191 485.743713,716.062744 
	C485.315094,705.955200 484.566772,695.748840 485.497986,685.728699 
	C486.371643,676.327881 486.402222,666.974792 486.542908,657.596069 
	C486.632202,651.645447 486.555115,645.665955 486.068115,639.739258 
	C485.356445,631.078186 486.788818,622.508057 486.728394,613.857971 
	C486.661072,604.225098 485.389465,594.748169 484.563263,585.228333 
	C484.272308,581.876099 486.042694,579.313782 485.882294,576.051453 
	C485.402588,566.296387 485.297546,556.484192 485.787231,546.731567 
	C486.224609,538.021545 485.475067,529.350769 485.841431,520.636597 
	C486.234253,511.293610 481.287994,508.346436 472.211578,511.227936 
	C462.646973,514.264404 454.593506,520.354736 445.532013,524.454163 
	C442.291412,525.920227 438.859528,527.113831 435.625183,528.698608 
	C426.653015,533.094666 420.539246,541.105042 412.285583,546.229309 
	C401.260529,553.074158 394.213959,563.661011 385.653809,572.863281 
	C379.419983,579.564758 375.613617,587.921997 369.687073,594.809021 
	C367.912415,596.871338 367.317657,599.901367 365.817688,602.255737 
	C358.908813,613.100220 351.407562,623.599060 345.064240,634.759338 
	C341.607330,640.841309 336.683746,646.620850 336.761475,654.307190 
	C336.799011,658.013855 334.093079,660.604187 332.921204,663.832764 
	C331.678040,667.257751 330.373169,670.601379 329.745026,674.207581 
	C328.359253,682.163208 324.752319,689.504150 323.385986,697.523621 
	C322.922119,700.246094 320.149963,702.328918 318.956421,705.474731 
	C315.824768,713.728760 314.710571,722.454224 312.305695,730.818237 
	C310.746704,736.240173 308.432251,741.832764 308.226624,747.831299 
	C308.110931,751.207336 306.649445,754.572388 304.577637,757.510864 
	C301.749878,761.521729 300.551483,766.016174 300.548584,770.965088 
	C300.546997,773.711670 299.787079,776.304321 298.401001,778.946899 
	C294.801331,785.809387 292.505402,793.273438 287.919342,799.743469 
	C285.503998,803.151001 281.953674,805.391357 279.926361,809.123352 
	C275.688477,816.924988 267.300415,819.229187 260.104095,822.750183 
	C256.676086,824.427490 252.318604,824.623840 248.874313,826.316650 
	C246.116455,823.812439 246.523788,821.053467 247.098083,818.493896 
	C249.041122,809.834106 249.517349,800.711548 254.804550,793.060852 
	C255.609604,791.895874 255.678055,790.579590 255.548615,788.871460 
z"/>
</svg>