<svg version="1.1" id="Layer_1" xmlns="http://www.w3.org/2000/svg" xmlns:xlink="http://www.w3.org/1999/xlink" x="0px" y="0px"
	 width="100%" viewBox="0 0 1024 1024" enable-background="new 0 0 1024 1024" xml:space="preserve">
<path fill="#000000" opacity="1.000000" stroke="none" 
	d="
M576.416077,742.599243 
	C570.376526,740.309387 566.740967,736.157593 563.174622,731.255493 
	C559.262146,725.877686 553.638245,721.772278 548.972534,716.908630 
	C542.251526,709.902466 536.083984,702.389526 531.054565,694.085815 
	C529.412048,691.374023 526.425354,691.020386 524.747192,689.063965 
	C520.159241,683.715332 516.139893,677.883911 511.694122,672.407043 
	C508.248169,668.161926 504.639893,664.025208 500.820770,660.116882 
	C499.098816,658.354675 499.189789,655.933899 497.510071,654.125916 
	C491.737366,647.912292 485.497894,641.907043 480.963287,634.842346 
	C477.568176,629.552856 473.727142,624.464111 470.827606,618.788452 
	C468.396790,614.030151 466.636017,608.959961 463.274689,604.565125 
	C461.185699,601.833862 460.669434,597.846130 459.646454,594.363831 
	C457.095673,585.680664 451.883484,577.998047 450.815857,568.694092 
	C449.747223,559.381714 448.935333,550.203064 450.707672,540.890930 
	C451.285461,537.855225 451.275299,534.580017 450.852386,531.508240 
	C450.011871,525.403442 451.885742,519.314087 450.657471,513.241516 
	C450.531281,512.617615 450.552521,511.806641 450.851013,511.277405 
	C457.272034,499.892334 456.246033,486.231964 461.843597,474.704559 
	C466.384888,465.352448 469.411285,455.361938 474.605499,446.283600 
	C477.196594,441.754944 479.367157,436.718872 480.380493,431.643311 
	C481.118286,427.947876 483.102356,424.963715 484.418274,421.740143 
	C487.140167,415.072449 486.584808,407.814697 489.191376,401.219421 
	C489.569183,400.263458 488.571960,398.728516 488.128784,397.490967 
	C487.173279,394.822754 486.632721,392.280640 487.060944,389.265564 
	C487.720215,384.623260 485.106995,380.305267 483.751465,376.052582 
	C480.650909,366.325134 479.585083,355.966431 474.604065,346.796234 
	C471.025635,340.208252 469.262726,332.670593 464.233154,326.818909 
	C463.917511,326.451752 463.735931,325.958618 463.535339,325.504913 
	C458.000458,312.986938 450.586761,301.423981 445.150085,288.813843 
	C443.175873,284.234711 441.024445,279.265228 436.908325,275.567291 
	C434.017365,272.970123 434.234619,268.336121 431.350830,265.221191 
	C424.090118,257.378601 420.500092,247.120377 414.582153,238.413254 
	C410.595398,232.547531 407.518005,226.174301 403.816711,220.186020 
	C400.591339,214.967789 396.094208,209.888870 395.551514,203.140411 
	C395.406982,201.343140 395.065247,199.370270 394.172058,197.856934 
	C389.684296,190.253296 392.279083,183.796204 396.681671,177.223526 
	C398.532166,174.460968 402.037445,174.233612 403.483368,174.406525 
	C409.372620,175.110825 415.475372,173.250900 421.154602,175.629852 
	C431.230865,179.850677 438.620026,187.105209 443.318054,196.823273 
	C445.925446,202.216858 450.326233,206.381226 452.731934,211.791519 
	C457.440216,222.380173 465.105225,231.140778 470.688873,241.201096 
	C473.203613,245.731995 477.740784,248.944626 480.889496,253.044113 
	C485.318542,258.810516 488.158752,265.838257 492.163361,271.749969 
	C497.659912,279.864166 499.614532,289.380035 504.672516,297.302582 
	C508.212006,302.846619 511.211609,308.734039 514.282532,314.421326 
	C516.606628,318.725525 517.503052,324.229523 519.265930,329.143158 
	C526.887390,350.386749 530.355408,372.802338 537.768311,394.156830 
	C541.606384,405.213226 540.614075,416.828156 534.773254,427.518250 
	C534.539246,427.946503 534.301086,428.457581 534.313965,428.923187 
	C534.641113,440.753693 527.343140,450.172791 524.248840,460.910248 
	C520.553040,473.734863 513.811462,485.380859 509.773956,497.966675 
	C506.812134,507.199341 501.725647,515.789185 501.025787,525.798157 
	C500.281342,536.444641 501.524994,546.935730 502.344360,557.499451 
	C502.928436,565.030029 505.929565,571.852051 508.066528,578.787170 
	C510.648407,587.166138 515.083252,595.023804 520.200745,602.516113 
	C523.263794,607.000488 526.567139,611.399780 529.614380,615.927856 
	C534.539124,623.245911 540.335388,629.993896 545.038635,637.440491 
	C551.194458,647.186951 558.704346,655.965149 565.908142,664.765564 
	C571.491333,671.586243 576.778931,679.009766 583.669556,684.882446 
	C587.760925,688.369324 592.805176,692.130066 594.802551,696.361145 
	C597.465454,702.002014 603.676392,702.722351 606.126099,708.050964 
	C608.416626,713.033203 613.293518,716.576782 615.621521,721.766052 
	C615.956360,722.512329 616.515869,723.173950 617.043762,723.815186 
	C625.410950,733.977844 620.761292,750.064575 607.814575,752.337280 
	C599.014709,753.882080 589.772644,751.621826 582.097656,746.219543 
	C580.354675,744.992676 578.411377,744.086609 576.416077,742.599243 
z"/>
<path fill="#000000" opacity="1.000000" stroke="none" 
	d="
M323.773346,305.683533 
	C332.594696,302.365509 340.392334,305.081665 347.985321,308.478333 
	C352.498840,310.497437 354.381165,314.916626 356.321472,319.160217 
	C358.714478,324.393951 360.135345,329.918884 361.696960,335.429962 
	C363.399261,341.437561 367.406647,346.103668 371.636993,350.573059 
	C377.590210,356.862732 380.626526,364.791901 384.103088,372.543549 
	C387.641541,380.433258 387.269684,388.651520 387.311127,396.859406 
	C387.354065,405.358795 383.390228,411.878815 376.080170,416.067932 
	C372.987610,417.840088 369.294189,416.393494 365.882294,416.520935 
	C359.750427,416.750000 353.381866,415.754303 348.253815,412.899963 
	C341.375427,409.071350 335.588806,403.403534 329.830292,397.827057 
	C323.299408,391.502472 320.929077,383.219025 320.045349,375.264191 
	C319.079132,366.566986 316.633820,358.218719 315.156952,349.720734 
	C313.730469,341.512695 313.045502,333.424957 312.536560,325.190125 
	C311.923370,315.268127 314.567902,310.080902 323.773346,305.683533 
z"/>
<path fill="#000000" opacity="1.000000" stroke="none" 
	d="
M608.276245,589.565674 
	C602.690796,583.215637 602.933899,575.710449 602.726501,568.360718 
	C602.532288,561.477600 610.453247,551.713318 617.073975,549.579224 
	C627.342224,546.269348 635.522644,550.447266 644.290039,555.153015 
	C655.274048,561.048523 662.864136,570.656433 672.180725,578.319092 
	C676.735413,582.065186 678.370850,588.799377 682.893250,593.118103 
	C688.166321,598.153625 689.845337,605.163696 690.957458,611.744080 
	C691.702637,616.152954 692.091309,621.379150 690.116211,625.990479 
	C688.177979,630.515869 684.387573,633.235718 680.388306,635.812012 
	C673.591736,640.190552 665.881592,642.976807 658.399231,640.342468 
	C650.095154,637.418884 641.328979,634.782776 634.941711,627.544800 
	C626.351746,617.810974 617.728638,608.241821 612.651245,596.040771 
	C611.716553,593.794739 609.898010,591.916565 608.276245,589.565674 
z"/>
<path fill="#000000" opacity="1.000000" stroke="none" 
	d="
M574.998779,197.955490 
	C582.840393,191.406479 599.698425,193.892258 606.408875,200.838272 
	C612.742188,207.393814 619.908630,213.059082 625.509033,220.429932 
	C634.999329,232.920471 642.773315,245.941971 645.817139,261.696472 
	C648.067871,273.345947 645.389526,276.742828 637.238708,283.760162 
	C636.742676,284.187225 636.179749,284.936005 635.685669,284.906403 
	C627.310913,284.404358 618.301392,286.793335 610.978027,281.053162 
	C607.060242,277.982452 601.565674,277.499115 598.604675,273.255798 
	C592.572815,264.611633 584.532349,257.654419 579.557068,247.957901 
	C576.269775,241.551010 572.248169,235.488647 570.034119,228.558884 
	C568.678528,224.316193 567.471191,219.972626 566.781677,215.582581 
	C565.619263,208.181320 566.989929,201.664276 574.998779,197.955490 
z"/>
<path fill="#000000" opacity="1.000000" stroke="none" 
	d="
M349.693970,634.021606 
	C356.517639,638.432922 360.511993,645.128784 365.892731,650.325623 
	C374.348663,658.492554 380.978424,668.069092 388.790375,676.691345 
	C393.594482,681.993835 398.198914,687.714355 401.676270,693.928040 
	C407.406372,704.167114 400.623535,721.732422 386.992279,720.685364 
	C375.372986,719.792847 365.211487,717.507263 356.421448,708.781433 
	C351.718811,704.113159 347.081970,699.289246 342.800507,694.333740 
	C336.611969,687.170959 332.098785,678.569214 325.980072,671.334778 
	C321.492737,666.029053 318.423187,660.226379 315.606445,654.050232 
	C312.427643,647.080322 314.540955,640.955811 318.745453,635.641174 
	C322.980438,630.288147 328.950348,628.275696 335.937531,629.618835 
	C340.600647,630.515259 345.236664,631.328125 349.693970,634.021606 
z"/>
</svg>